<?xml version="1.0" encoding="UTF-8" standalone="no"?>
<!-- Created with Inkscape (http://www.inkscape.org/) -->

<svg
   width="15.734226"
   height="16.639378"
   viewBox="0 0 15.734226 16.639378"
   version="1.1"
   id="svg5"
   xml:space="preserve"
   inkscape:export-filename="logo.svg"
   inkscape:export-xdpi="96"
   inkscape:export-ydpi="96"
   xmlns:inkscape="http://www.inkscape.org/namespaces/inkscape"
   xmlns:sodipodi="http://sodipodi.sourceforge.net/DTD/sodipodi-0.dtd"
   xmlns:xlink="http://www.w3.org/1999/xlink"
   xmlns="http://www.w3.org/2000/svg"
   xmlns:svg="http://www.w3.org/2000/svg"><sodipodi:namedview
     id="namedview7"
     pagecolor="#ffffff"
     bordercolor="#000000"
     borderopacity="0.25"
     inkscape:showpageshadow="2"
     inkscape:pageopacity="0.0"
     inkscape:pagecheckerboard="0"
     inkscape:deskcolor="#d1d1d1"
     inkscape:document-units="px"
     showgrid="false"
     inkscape:lockguides="true" /><defs
     id="defs2"><linearGradient
       x1="0.5"
       y1="0"
       x2="0.5"
       y2="1"
       id="linearGradient7361"><stop
         stop-color="hsl(212, 72%, 59%)"
         stop-opacity="1"
         offset="0"
         id="stop7357"
         style="stop-color:#8d96ed;stop-opacity:1;" /><stop
         stop-color="hsl(238, 87%, 43%)"
         stop-opacity="1"
         offset="1"
         id="stop7359"
         style="stop-color:#3bb5f2;stop-opacity:1;" /></linearGradient><linearGradient
       x1="0.5"
       y1="0"
       x2="0.5"
       y2="1"
       id="linearGradient7349"><stop
         stop-color="hsl(212, 72%, 59%)"
         stop-opacity="1"
         offset="0%"
         id="stop7345" /><stop
         stop-color="hsl(238, 87%, 43%)"
         stop-opacity="1"
         offset="1"
         id="stop7347"
         style="stop-color:#0e70cd;stop-opacity:1;" /></linearGradient><linearGradient
       x1="0.5"
       y1="0"
       x2="0.5"
       y2="1"
       id="nnneon-grad"><stop
         stop-color="hsl(212, 72%, 59%)"
         stop-opacity="1"
         offset="0%"
         id="stop182" /><stop
         stop-color="hsl(238, 87%, 43%)"
         stop-opacity="1"
         offset="100%"
         id="stop184" /></linearGradient><filter
       id="nnneon-filter"
       x="-0.1782041"
       y="-0.1247587"
       width="1.3564082"
       height="1.2495174"
       filterUnits="objectBoundingBox"
       primitiveUnits="userSpaceOnUse"
       color-interpolation-filters="sRGB"><feGaussianBlur
         stdDeviation="16 7"
         x="0%"
         y="0%"
         width="100%"
         height="100%"
         in="SourceGraphic"
         edgeMode="none"
         result="blur"
         id="feGaussianBlur187" /></filter><filter
       id="nnneon-filter2"
       x="-0.16585419"
       y="-0.16116077"
       width="1.3317084"
       height="1.3223217"
       filterUnits="objectBoundingBox"
       primitiveUnits="userSpaceOnUse"
       color-interpolation-filters="sRGB"><feGaussianBlur
         stdDeviation="13 17"
         x="0%"
         y="0%"
         width="100%"
         height="100%"
         in="SourceGraphic"
         edgeMode="none"
         result="blur"
         id="feGaussianBlur190" /></filter><linearGradient
       inkscape:collect="always"
       xlink:href="#nnneon-grad"
       id="linearGradient298"
       x1="409.508"
       y1="38.638332"
       x2="409.508"
       y2="742.78729"
       gradientTransform="scale(0.97678198,1.0237699)"
       gradientUnits="userSpaceOnUse" /><linearGradient
       inkscape:collect="always"
       xlink:href="#nnneon-grad"
       id="linearGradient300"
       x1="453.06494"
       y1="14.558771"
       x2="453.06494"
       y2="734.11993"
       gradientTransform="scale(0.93584829,1.0685493)"
       gradientUnits="userSpaceOnUse" /><linearGradient
       inkscape:collect="always"
       xlink:href="#nnneon-grad"
       id="linearGradient302"
       x1="401.77457"
       y1="14.558771"
       x2="401.77457"
       y2="734.11993"
       gradientTransform="scale(0.93584828,1.0685493)"
       gradientUnits="userSpaceOnUse" /><linearGradient
       inkscape:collect="always"
       xlink:href="#linearGradient7361"
       id="linearGradient304"
       x1="424.23679"
       y1="53.137085"
       x2="424.23679"
       y2="701.15875"
       gradientTransform="scale(0.94286974,1.0605919)"
       gradientUnits="userSpaceOnUse" /><linearGradient
       inkscape:collect="always"
       xlink:href="#linearGradient7349"
       id="linearGradient6711"
       gradientUnits="userSpaceOnUse"
       gradientTransform="scale(0.96862787,1.0323882)"
       x1="412.95532"
       y1="15.068715"
       x2="647.2113"
       y2="583.54248" /></defs><g
     inkscape:label="Layer 1"
     inkscape:groupmode="layer"
     id="layer1"
     transform="translate(-0.13288723,0.31968883)"><g
       stroke-width="28"
       stroke="url(#nnneon-grad)"
       fill="none"
       id="g203"
       transform="matrix(0.01908599,0,0,0.01908599,0.36560374,0.36560339)"
       style="stroke:url(#linearGradient6711);stroke-width:130.986;stroke-dasharray:none"><path
         d="m 377.56038,76.359691 c 13.88566,-8.015443 30.99364,-8.015443 44.8793,0.0022 L 669.0604,218.74824 c 13.88565,8.01544 22.43965,22.83234 22.43965,38.86547 v 284.77261 c 0,16.03313 -8.554,30.85003 -22.43965,38.86772 L 422.43968,723.64035 c -13.88566,8.01544 -30.99364,8.01544 -44.8793,-0.002 L 130.93966,581.2518 c -13.88565,-8.01545 -22.43965,-22.83235 -22.43965,-38.86548 V 257.61371 c 0,-16.03313 8.554,-30.85003 22.43965,-38.86771 z"
         filter="url(#nnneon-filter)"
         id="path195"
         style="stroke:url(#linearGradient298);stroke-width:130.986;stroke-dasharray:none" /><path
         d="m 401.56038,76.359691 c 13.88566,-8.015443 30.99364,-8.015443 44.8793,0.0022 L 693.0604,218.74824 c 13.88565,8.01544 22.43965,22.83234 22.43965,38.86547 v 284.77261 c 0,16.03313 -8.554,30.85003 -22.43965,38.86772 L 446.43968,723.64035 c -13.88566,8.01544 -30.99364,8.01544 -44.8793,-0.002 L 154.93966,581.2518 c -13.88565,-8.01545 -22.43965,-22.83235 -22.43965,-38.86548 V 257.61371 c 0,-16.03313 8.554,-30.85003 22.43965,-38.86771 z"
         filter="url(#nnneon-filter2)"
         opacity="0.15"
         id="path197"
         style="stroke:url(#linearGradient300);stroke-width:130.986;stroke-dasharray:none" /><path
         d="m 353.56038,76.359691 c 13.88566,-8.015443 30.99364,-8.015443 44.8793,0.0022 L 645.0604,218.74824 c 13.88565,8.01544 22.43965,22.83234 22.43965,38.86547 v 284.77261 c 0,16.03313 -8.554,30.85003 -22.43965,38.86772 L 398.43968,723.64035 c -13.88566,8.01544 -30.99364,8.01544 -44.8793,-0.002 L 106.93966,581.2518 C 93.054006,573.23635 84.500012,558.41945 84.500012,542.38632 V 257.61371 c 0,-16.03313 8.553994,-30.85003 22.439648,-38.86771 z"
         filter="url(#nnneon-filter2)"
         opacity="0.15"
         id="path199"
         style="stroke:url(#linearGradient302);stroke-width:130.986;stroke-dasharray:none" /><path
         d="m 377.56038,76.359691 c 13.88566,-8.015443 30.99364,-8.015443 44.8793,0.0022 L 669.0604,218.74824 c 13.88565,8.01544 22.43965,22.83234 22.43965,38.86547 v 284.77261 c 0,16.03313 -8.554,30.85003 -22.43965,38.86772 L 422.43968,723.64035 c -13.88566,8.01544 -30.99364,8.01544 -44.8793,-0.002 L 130.93966,581.2518 c -13.88565,-8.01545 -22.43965,-22.83235 -22.43965,-38.86548 V 257.61371 c 0,-16.03313 8.554,-30.85003 22.43965,-38.86771 z"
         id="path201"
         style="stroke:url(#linearGradient304);stroke-width:130.986;stroke-dasharray:none" /></g></g></svg>
