<?xml version="1.0" encoding="UTF-8" standalone="no"?>
<!-- Created with Inkscape (http://www.inkscape.org/) -->

<svg
   width="16"
   height="16"
   viewBox="0 0 16 16"
   version="1.1"
   id="svg5"
   xml:space="preserve"
   xmlns:inkscape="http://www.inkscape.org/namespaces/inkscape"
   xmlns:sodipodi="http://sodipodi.sourceforge.net/DTD/sodipodi-0.dtd"
   xmlns:xlink="http://www.w3.org/1999/xlink"
   xmlns="http://www.w3.org/2000/svg"
   xmlns:svg="http://www.w3.org/2000/svg"><sodipodi:namedview
     id="namedview7"
     pagecolor="#ffffff"
     bordercolor="#000000"
     borderopacity="0.25"
     inkscape:showpageshadow="2"
     inkscape:pageopacity="0.0"
     inkscape:pagecheckerboard="0"
     inkscape:deskcolor="#d1d1d1"
     inkscape:document-units="px"
     showgrid="false"
     inkscape:lockguides="true" /><defs
     id="defs2"><inkscape:path-effect
       effect="powermask"
       id="path-effect6515"
       is_visible="true"
       lpeversion="1"
       uri="#mask-powermask-path-effect6515"
       invert="false"
       hide_mask="false"
       background="true"
       background_color="#ffffffff" /><linearGradient
       inkscape:collect="always"
       id="linearGradient2498"><stop
         style="stop-color:#498fe1;stop-opacity:1;"
         offset="0"
         id="stop2494" /><stop
         style="stop-color:#0f15cd;stop-opacity:1;"
         offset="1"
         id="stop2496" /></linearGradient><linearGradient
       x1="0.5"
       y1="0"
       x2="0.5"
       y2="1"
       id="nnneon-grad"><stop
         stop-color="hsl(212, 72%, 59%)"
         stop-opacity="1"
         offset="0%"
         id="stop182" /><stop
         stop-color="hsl(238, 87%, 43%)"
         stop-opacity="1"
         offset="100%"
         id="stop184" /></linearGradient><filter
       id="nnneon-filter"
       x="-0.098848619"
       y="-0.054629248"
       width="1.1976972"
       height="1.1092585"
       filterUnits="objectBoundingBox"
       primitiveUnits="userSpaceOnUse"
       color-interpolation-filters="sRGB"><feGaussianBlur
         stdDeviation="16 7"
         x="0%"
         y="0%"
         width="100%"
         height="100%"
         in="SourceGraphic"
         edgeMode="none"
         result="blur"
         id="feGaussianBlur187" /></filter><filter
       id="nnneon-filter2"
       x="-0.086498708"
       y="-0.091031313"
       width="1.1729974"
       height="1.1820626"
       filterUnits="objectBoundingBox"
       primitiveUnits="userSpaceOnUse"
       color-interpolation-filters="sRGB"><feGaussianBlur
         stdDeviation="13 17"
         x="0%"
         y="0%"
         width="100%"
         height="100%"
         in="SourceGraphic"
         edgeMode="none"
         result="blur"
         id="feGaussianBlur190" /></filter><linearGradient
       inkscape:collect="always"
       xlink:href="#linearGradient2498"
       id="linearGradient2500"
       x1="-18.633408"
       y1="-4.658947"
       x2="1.4037122"
       y2="12.846922"
       gradientUnits="userSpaceOnUse"
       gradientTransform="matrix(0.80182521,0,0,0.94658213,14.166384,2.5488945)" /><mask
       maskUnits="userSpaceOnUse"
       id="mask-powermask-path-effect6515"><path
         id="mask-powermask-path-effect6515_box"
         style="fill:#ffffff;fill-opacity:1"
         d="M -1,-1 H 17 V 17 H -1 Z" /><g
         stroke-width="28"
         stroke="url(#nnneon-grad)"
         fill="none"
         id="g6503"
         transform="matrix(0.01908599,0,0,0.01908599,0.38394714,0.36560349)"
         style="stroke:url(#linearGradient6513);stroke-width:38.4575;stroke-dasharray:none"><path
           d="m 377.56038,76.359691 c 13.88566,-8.015443 30.99364,-8.015443 44.8793,0.0022 L 669.0604,218.74824 c 13.88565,8.01544 22.43965,22.83234 22.43965,38.86547 v 284.77261 c 0,16.03313 -8.554,30.85003 -22.43965,38.86772 L 422.43968,723.64035 c -13.88566,8.01544 -30.99364,8.01544 -44.8793,-0.002 L 130.93966,581.2518 c -13.88565,-8.01545 -22.43965,-22.83235 -22.43965,-38.86548 V 257.61371 c 0,-16.03313 8.554,-30.85003 22.43965,-38.86771 z"
           filter="url(#nnneon-filter)"
           id="path6495"
           style="stroke:url(#linearGradient6505);stroke-width:38.4575;stroke-dasharray:none" /><path
           d="m 401.56038,76.359691 c 13.88566,-8.015443 30.99364,-8.015443 44.8793,0.0022 L 693.0604,218.74824 c 13.88565,8.01544 22.43965,22.83234 22.43965,38.86547 v 284.77261 c 0,16.03313 -8.554,30.85003 -22.43965,38.86772 L 446.43968,723.64035 c -13.88566,8.01544 -30.99364,8.01544 -44.8793,-0.002 L 154.93966,581.2518 c -13.88565,-8.01545 -22.43965,-22.83235 -22.43965,-38.86548 V 257.61371 c 0,-16.03313 8.554,-30.85003 22.43965,-38.86771 z"
           filter="url(#nnneon-filter2)"
           opacity="0.15"
           id="path6497"
           style="stroke:url(#linearGradient6507);stroke-width:38.4575;stroke-dasharray:none" /><path
           d="m 353.56038,76.359691 c 13.88566,-8.015443 30.99364,-8.015443 44.8793,0.0022 L 645.0604,218.74824 c 13.88565,8.01544 22.43965,22.83234 22.43965,38.86547 v 284.77261 c 0,16.03313 -8.554,30.85003 -22.43965,38.86772 L 398.43968,723.64035 c -13.88566,8.01544 -30.99364,8.01544 -44.8793,-0.002 L 106.93966,581.2518 C 93.054006,573.23635 84.500012,558.41945 84.500012,542.38632 V 257.61371 c 0,-16.03313 8.553994,-30.85003 22.439648,-38.86771 z"
           filter="url(#nnneon-filter2)"
           opacity="0.15"
           id="path6499"
           style="stroke:url(#linearGradient6509);stroke-width:38.4575;stroke-dasharray:none" /><path
           d="m 377.56038,76.359691 c 13.88566,-8.015443 30.99364,-8.015443 44.8793,0.0022 L 669.0604,218.74824 c 13.88565,8.01544 22.43965,22.83234 22.43965,38.86547 v 284.77261 c 0,16.03313 -8.554,30.85003 -22.43965,38.86772 L 422.43968,723.64035 c -13.88566,8.01544 -30.99364,8.01544 -44.8793,-0.002 L 130.93966,581.2518 c -13.88565,-8.01545 -22.43965,-22.83235 -22.43965,-38.86548 V 257.61371 c 0,-16.03313 8.554,-30.85003 22.43965,-38.86771 z"
           id="path6501"
           style="stroke:url(#linearGradient6511);stroke-width:38.4575;stroke-dasharray:none" /></g></mask><linearGradient
       inkscape:collect="always"
       xlink:href="#nnneon-grad"
       id="linearGradient6505"
       gradientUnits="userSpaceOnUse"
       gradientTransform="scale(0.97678198,1.0237699)"
       x1="409.508"
       y1="38.638332"
       x2="409.508"
       y2="742.78729" /><linearGradient
       inkscape:collect="always"
       xlink:href="#nnneon-grad"
       id="linearGradient6507"
       gradientUnits="userSpaceOnUse"
       gradientTransform="scale(0.93584829,1.0685493)"
       x1="453.06494"
       y1="14.558771"
       x2="453.06494"
       y2="734.11993" /><linearGradient
       inkscape:collect="always"
       xlink:href="#nnneon-grad"
       id="linearGradient6509"
       gradientUnits="userSpaceOnUse"
       gradientTransform="scale(0.93584828,1.0685493)"
       x1="401.77457"
       y1="14.558771"
       x2="401.77457"
       y2="734.11993" /><linearGradient
       inkscape:collect="always"
       xlink:href="#nnneon-grad"
       id="linearGradient6511"
       gradientUnits="userSpaceOnUse"
       gradientTransform="scale(0.94286974,1.0605919)"
       x1="424.23679"
       y1="53.137085"
       x2="424.23679"
       y2="701.15875" /><linearGradient
       inkscape:collect="always"
       xlink:href="#nnneon-grad"
       id="linearGradient6513"
       gradientUnits="userSpaceOnUse"
       gradientTransform="scale(0.96862787,1.0323882)"
       x1="412.95532"
       y1="15.068715"
       x2="412.95532"
       y2="759.83362" /></defs><g
     inkscape:label="Layer 1"
     inkscape:groupmode="layer"
     id="layer1"><path
       style="fill:url(#linearGradient2500);fill-opacity:1;stroke:none;stroke-width:0.98782"
       id="rect414"
       width="16"
       height="16"
       x="0"
       y="0"
       mask="url(#mask-powermask-path-effect6515)"
       inkscape:path-effect="#path-effect6515"
       d="M 0,0 H 16 V 16 H 0 Z"
       sodipodi:type="rect" /></g></svg>
