<svg xmlns="http://www.w3.org/2000/svg" version="1.1" xmlns:xlink="http://www.w3.org/1999/xlink" xmlns:svgjs="http://svgjs.dev/svgjs" viewBox="0 0 800 800"><defs><filter id="uuunion-blur" x="-100%" y="-100%" width="400%" height="400%" color-interpolation-filters="sRGB">
        <feGaussianBlur in="SourceGraphic" stdDeviation="0 0" result="blur"></feGaussianBlur>
        <feDropShadow stdDeviation="12.307692307692308" in="blur" dx="10" dy="10" flood-color="hsl(221, 89%, 18%)" flood-opacity="0.25" x="0%" y="0%" width="100%" height="100%"></feDropShadow>
      </filter><filter id="uuunion-blur2" x="-100%" y="-100%" width="400%" height="400%" color-interpolation-filters="sRGB">
        <feGaussianBlur in="SourceGraphic" stdDeviation="0 0" result="blur"></feGaussianBlur>
        <feDropShadow stdDeviation="12.307692307692308" in="blur" dx="-10" dy="-10" flood-color="hsl(221, 89%, 18%)" flood-opacity="0.25" x="0%" y="0%" width="100%" height="100%"></feDropShadow>
      </filter><linearGradient gradientTransform="rotate(0, 0.5, 0.5)" x1="50%" y1="0%" x2="50%" y2="100%" id="uuunion-grad"><stop stop-color="hsl(227, 81%, 10%)" offset="10%"></stop><stop stop-color="hsl(221, 89%, 18%)" offset="90%"></stop></linearGradient><linearGradient gradientTransform="rotate(135, 0.5, 0.5)" x1="50%" y1="0%" x2="50%" y2="100%" id="uuunion-grad2"><stop stop-color="hsl(227, 81%, 10%)" offset="25%"></stop><stop stop-color="hsl(221, 89%, 18%)" offset="100%"></stop></linearGradient><linearGradient gradientTransform="rotate(333, 0.5, 0.5)" x1="50%" y1="0%" x2="50%" y2="100%" id="uuunion-grad3"><stop stop-color="hsl(227, 81%, 10%)" offset="0%"></stop><stop stop-color="hsl(221, 89%, 18%)" offset="75%"></stop></linearGradient></defs><path d="M-79.08 -81.15Q-64.41 -78.35 -49.74 -75.72 -35.06 -73.52 -20.39 -71.98 -5.72 -71.24 8.95 -71.39 23.62 -72.41 38.29 -74.19 52.97 -76.56 67.64 -79.28 82.31 -82.07 96.99 -84.65 111.66 -86.76 126.33 -88.18 141 -88.78 155.68 -88.49 170.35 -87.35 185.02 -85.46 199.7 -83.02 214.37 -80.27 229.04 -77.5 243.72 -74.98 258.39 -72.96 273.06 -71.66 287.74 -71.2 302.41 -71.62 317.08 -72.89 331.76 -74.88 346.43 -77.39 361.1 -80.16 375.77 -82.91 390.45 -85.37 405.12 -87.28 419.79 -88.46 434.47 -88.79 449.14 -88.22 463.81 -86.83 478.49 -84.74 493.16 -82.18 507.83 -79.39 522.51 -76.67 537.18 -74.28 551.85 -72.47 566.53 -71.42 581.2 -71.23 595.87 -71.93 610.54 -73.45 625.22 -75.62 639.89 -78.24 654.56 -81.03 669.24 -83.72 683.91 -86.03 698.58 -87.74 713.26 -88.66 727.93 -88.71 742.6 -87.87 757.28 -86.24 771.95 -83.98 786.62 -81.32 801.3 -78.52 815.97 -75.88 830.64 -73.64 845.31 -72.05 859.99 -71.26 856.31 -56.04 856.47 -40.82 860.45 -25.6 867.59 -10.37 876.75 4.84 886.43 20.06 895.07 35.29 901.26 50.51 904.01 65.73 902.86 80.96 898.01 96.18 890.24 111.4 880.8 126.63 871.24 141.85 863.09 157.07 857.69 172.3 855.9 187.52 858.02 202.74 863.7 217.97 872.02 233.19 881.64 248.41 890.99 263.64 898.55 278.86 903.11 294.08 903.92 309.31 900.86 324.53 894.41 339.75 885.62 354.98 875.92 370.2 866.88 385.42 859.97 400.64 856.31 415.87 856.48 431.09 860.47 446.31 867.62 461.54 876.78 476.76 886.46 491.98 895.09 507.21 901.28 522.43 904.01 537.65 902.85 552.88 897.99 568.1 890.21 583.32 880.77 598.55 871.21 613.77 863.07 628.99 857.68 644.22 855.9 659.44 858.03 674.66 863.72 689.89 872.05 705.11 881.67 720.33 891.01 735.56 898.57 750.78 903.12 766 903.92 781.22 900.84 796.45 894.38 811.67 885.59 826.89 875.89 842.12 866.86 857.34 859.96 872.56 856.3 887.79 856.49 903.01 841.87 900.93 827.25 896.74 812.64 890.86 798.02 883.88 783.41 876.5 768.79 869.48 754.17 863.52 739.56 859.23 724.94 857.03 710.33 857.15 695.71 859.58 681.09 864.07 666.48 870.17 651.86 877.26 637.25 884.63 622.63 891.53 608.02 897.26 593.4 901.25 578.78 903.09 564.17 902.61 549.55 899.83 534.94 895.06 520.32 888.76 505.7 881.58 491.09 874.24 476.47 867.47 461.86 861.98 447.24 858.3 432.62 856.82 418.01 857.67 403.39 860.78 388.78 865.83 374.16 872.31 359.55 879.57 344.93 886.87 330.31 893.47 315.7 898.72 301.08 902.07 286.47 903.19 271.85 901.98 257.23 898.54 242.62 893.22 228 886.58 213.39 879.26 198.77 872.02 184.15 865.59 169.54 860.61 154.92 857.59 140.31 856.83 125.69 858.41 111.07 862.17 96.46 867.73 81.84 874.53 67.23 881.88 52.61 889.04 38 895.29 23.38 899.99 8.76 902.67 -5.84 903.06 -20.46 901.13 -35.07 897.05 -49.69 891.26 -64.31 884.33 -78.92 876.96 -78.91 861.99 -79.08 847.02 -79.4 832.05 -79.81 817.07 -80.25 802.1 -80.65 787.13 -80.95 772.16 -81.09 757.19 -81.05 742.22 -80.84 727.25 -80.5 712.28 -80.07 697.31 -79.63 682.34 -79.25 667.37 -78.99 652.4 -78.9 637.43 -78.98 622.46 -79.22 607.49 -79.59 592.52 -80.03 577.55 -80.46 562.58 -80.82 547.61 -81.04 532.63 -81.09 517.66 -80.97 502.69 -80.68 487.72 -80.29 472.75 -79.85 457.78 -79.43 442.81 -79.1 427.84 -78.92 412.87 -78.91 397.9 -79.08 382.93 -79.4 367.96 -79.81 352.99 -80.25 338.02 -80.65 323.05 -80.95 308.08 -81.09 293.11 -81.05 278.14 -80.84 263.16 -80.5 248.19 -80.07 233.22 -79.63 218.25 -79.25 203.28 -78.99 188.31 -78.9 173.34 -78.98 158.37 -79.22 143.4 -79.6 128.43 -80.03 113.46 -80.46 98.49 -80.82 83.52 -81.04 68.55 -81.09 53.58 -80.97 38.61 -80.68 23.64 -80.29 8.67 -79.85 -6.29 -79.43 -21.27 -79.1 -36.24 -78.92 -51.21 -78.91 -66.18 -79.08 -81.15" fill="url(#uuunion-grad)"></path><path d="M-79.08 -81.15Q-78.91 -66.18 -78.92 -51.21 -79.1 -36.24 -79.43 -21.27 -79.85 -6.29 -80.29 8.67 -80.68 23.64 -80.97 38.61 -81.09 53.58 -81.04 68.55 -80.82 83.52 -80.46 98.49 -80.03 113.46 -79.6 128.43 -79.22 143.4 -78.98 158.37 -78.9 173.34 -78.99 188.31 -79.25 203.28 -79.63 218.25 -80.07 233.22 -80.5 248.19 -80.84 263.16 -81.05 278.14 -81.09 293.11 -80.95 308.08 -80.65 323.05 -80.25 338.02 -79.81 352.99 -79.4 367.96 -79.08 382.93 -78.91 397.9 -69.17 401.3 -59.43 404.63 -49.69 407.76 -39.95 410.54 -30.2 412.84 -20.46 414.57 -2.2 415.9 0.95 415.98 13.16 408.9 25.44 400.78 37.82 391.76 50.32 382.03 62.94 371.86 75.7 361.52 88.59 351.29 101.61 341.46 114.74 332.27 127.96 323.91 141.26 316.52 154.59 310.17 167.92 304.86 181.22 300.5 194.45 296.95 207.57 294.01 220.55 291.45 233.34 289 245.93 286.39 258.29 283.38 270.41 279.75 282.28 275.31 293.91 269.96 305.3 263.64 316.48 256.37 327.47 248.24 338.31 239.38 349.06 230 359.76 220.31 370.46 210.56 381.23 201 392.12 191.84 403.19 183.3 414.5 175.51 426.1 168.59 438.03 162.55 450.32 157.37 463 152.97 476.07 149.21 489.55 145.89 503.41 142.82 517.63 139.76 532.18 136.5 546.99 132.82 562.01 128.56 577.18 123.59 592.41 117.82 607.61 111.24 622.72 103.89 637.64 95.84 652.29 87.25 666.59 78.28 680.48 69.12 693.9 59.99 706.8 51.08 719.16 42.58 730.95 34.63 742.19 27.34 752.88 20.78 763.06 14.95 772.79 9.81 782.13 5.27 791.17 1.21 800 -2.54 789.97 -19.97 782.15 -37.41 778.25 -54.84 779.12 -72.27 784.57 -89.71 793.41 -107.14 803.7 -124.57 813.17 -142.01 798.03 -144.29 782.89 -146.14 767.75 -147.38 752.61 -147.89 737.47 -147.6 722.33 -146.56 707.19 -144.86 692.05 -142.68 676.91 -140.23 661.77 -137.76 646.63 -135.5 631.48 -133.7 616.34 -132.53 601.2 -132.1 586.06 -132.45 570.92 -133.56 555.78 -135.31 540.64 -137.53 525.5 -140 510.36 -142.46 495.22 -144.68 480.08 -146.43 464.94 -147.54 449.8 -147.89 434.66 -147.46 419.52 -146.29 404.38 -144.48 389.23 -142.23 374.09 -139.76 358.95 -137.31 343.81 -135.12 328.67 -133.43 313.53 -132.39 298.39 -132.1 283.25 -132.61 268.11 -133.85 252.97 -135.7 237.83 -137.99 222.69 -140.47 207.55 -142.91 192.41 -145.05 177.27 -146.69 162.13 -147.66 146.98 -147.87 131.84 -147.29 116.7 -145.99 101.56 -144.09 86.42 -141.77 71.28 -139.28 56.14 -136.87 41 -134.76 25.86 -133.18 10.72 -132.27 -4.41 -132.14 -19.55 -132.79 -34.69 -134.16 -49.83 -136.11 -64.97 -138.45 -80.11 -140.94 -95.25 -143.34 -110.4 -145.4 -125.54 -146.93 -134.82 -134.51 -116.65 -116.63 -107.08 -108.09 -97.63 -99.29 -88.3 -90.29 -79.08 -81.15" fill="url(#uuunion-grad2)" filter="url(#uuunion-blur)"></path><path d="M778.37 395.92Q788.11 399.28 797.85 402.67 807.6 405.94 817.34 408.94 827.08 411.54 836.82 413.62 846.56 415.08 856.31 415.87 856.48 431.09 860.47 446.31 867.62 461.54 876.78 476.76 886.46 491.98 895.09 507.21 901.28 522.43 904.01 537.65 902.85 552.88 897.99 568.1 890.21 583.32 880.77 598.55 871.21 613.77 863.07 628.99 857.68 644.22 855.9 659.44 858.03 674.66 863.72 689.89 872.05 705.11 881.67 720.33 891.01 735.56 898.57 750.78 903.12 766 903.92 781.22 900.84 796.45 894.38 811.67 885.59 826.89 875.89 842.12 866.86 857.34 859.96 872.56 856.3 887.79 856.49 903.01 843.07 901.19 829.66 897.56 816.25 892.44 802.83 886.25 789.42 879.54 776.01 872.86 762.59 866.79 749.18 861.84 735.77 858.45 722.35 856.88 708.94 857.29 695.53 859.63 682.11 863.7 668.7 869.16 655.29 875.55 641.88 882.31 628.46 888.88 615.05 894.69 601.64 899.24 588.22 902.16 574.81 903.19 561.4 902.25 547.98 899.41 534.57 894.92 521.16 889.15 507.74 882.61 494.33 875.84 480.92 869.43 467.5 863.91 454.09 859.77 440.68 857.35 427.27 856.86 413.85 858.34 400.44 861.66 387.03 866.54 373.61 872.58 360.2 879.24 346.79 885.96 333.37 892.18 319.96 897.36 306.55 901.06 293.13 902.97 279.72 902.92 266.31 900.92 252.89 897.13 239.48 891.89 226.07 885.63 212.66 878.89 199.24 872.25 185.83 866.27 172.42 861.45 159 858.22 145.59 856.84 132.18 857.43 118.76 859.94 105.35 864.16 91.94 869.73 78.52 876.18 65.11 882.95 51.7 889.47 38.28 895.18 24.87 899.6 4.74 897.69 -1.92 882.89 -1.8 872.74 -1.63 862.59 -1.41 852.44 -1.16 842.29 -0.52 827.07 0.36 822 13.18 814.88 26.07 806.29 39.02 796.41 52 785.49 64.97 773.88 77.91 761.96 90.79 750.12 103.58 738.76 116.25 728.24 128.78 718.83 141.15 710.76 153.34 704.15 165.36 698.99 177.21 695.21 188.89 692.62 200.43 690.95 211.84 689.87 223.16 689.01 234.43 688 245.69 686.47 256.97 684.09 268.34 680.6 279.83 675.82 291.49 669.65 303.36 662.1 315.48 653.28 327.87 643.38 340.56 632.67 353.56 621.46 366.88 610.11 380.49 598.97 394.4 588.4 408.56 578.67 422.93 570.04 437.48 562.65 452.13 556.58 466.83 551.79 481.51 548.18 496.11 545.54 510.54 543.61 524.75 542.09 538.67 540.63 552.24 538.91 565.41 536.6 578.15 533.44 590.44 529.21 602.25 523.8 613.59 517.15 624.48 509.3 634.96 500.38 645.05 490.59 654.84 480.18 664.38 469.45 673.75 458.72 683.05 448.31 692.37 438.5 701.81 429.53 711.46 421.59 721.41 414.78 731.75 409.13 742.56 404.58 753.9 401 772.1 397.06 778.37 395.92" fill="url(#uuunion-grad3)" filter="url(#uuunion-blur2)"></path></svg>