<svg xmlns="http://www.w3.org/2000/svg" version="1.1" xmlns:xlink="http://www.w3.org/1999/xlink" xmlns:svgjs="http://svgjs.dev/svgjs" viewBox="0 0 1422 800"><defs><filter id="uuunion-blur" x="-100%" y="-100%" width="400%" height="400%" color-interpolation-filters="sRGB">
        <feGaussianBlur in="SourceGraphic" stdDeviation="0 0" result="blur"></feGaussianBlur>
        <feDropShadow stdDeviation="16" in="blur" dx="13" dy="13" flood-color="hsl(220, 89%, 15%)" flood-opacity="0.31" x="0%" y="0%" width="100%" height="100%"></feDropShadow>
      </filter><filter id="uuunion-blur2" x="-100%" y="-100%" width="400%" height="400%" color-interpolation-filters="sRGB">
        <feGaussianBlur in="SourceGraphic" stdDeviation="0 0" result="blur"></feGaussianBlur>
        <feDropShadow stdDeviation="16" in="blur" dx="-13" dy="-13" flood-color="hsl(220, 89%, 15%)" flood-opacity="0.31" x="0%" y="0%" width="100%" height="100%"></feDropShadow>
      </filter><linearGradient gradientTransform="rotate(48, 0.5, 0.5)" x1="50%" y1="0%" x2="50%" y2="100%" id="uuunion-grad"><stop stop-color="hsl(247, 85%, 5%)" offset="10%"></stop><stop stop-color="hsl(220, 89%, 15%)" offset="90%"></stop></linearGradient><linearGradient gradientTransform="rotate(110, 0.5, 0.5)" x1="50%" y1="0%" x2="50%" y2="100%" id="uuunion-grad2"><stop stop-color="hsl(247, 85%, 5%)" offset="25%"></stop><stop stop-color="hsl(220, 89%, 15%)" offset="100%"></stop></linearGradient><linearGradient gradientTransform="rotate(344, 0.5, 0.5)" x1="50%" y1="0%" x2="50%" y2="100%" id="uuunion-grad3"><stop stop-color="hsl(247, 85%, 5%)" offset="0%"></stop><stop stop-color="hsl(220, 89%, 15%)" offset="75%"></stop></linearGradient></defs><path d="M-139.25 -87.86Q-126.03 -86.18 -112.82 -84.16 -99.6 -81.93 -86.39 -79.6 -73.17 -77.29 -59.96 -75.12 -46.74 -73.21 -33.52 -71.65 -20.31 -70.53 -7.09 -69.91 6.11 -69.83 19.33 -70.27 32.54 -71.23 45.76 -72.65 58.97 -74.45 72.19 -76.55 85.41 -78.83 98.62 -81.16 111.84 -83.44 125.05 -85.54 138.27 -87.34 151.48 -88.76 164.7 -89.72 177.92 -90.16 191.13 -90.08 204.35 -89.46 217.56 -88.34 230.78 -86.78 243.99 -84.87 257.21 -82.7 270.43 -80.39 283.64 -78.06 296.86 -75.83 310.07 -73.82 323.29 -72.13 336.5 -70.86 349.72 -70.06 362.94 -69.8 376.15 -70.06 389.37 -70.85 402.58 -72.12 415.8 -73.81 429.01 -75.82 442.23 -78.05 455.44 -80.38 468.66 -82.69 481.88 -84.86 495.09 -86.78 508.31 -88.33 521.52 -89.45 534.74 -90.07 547.95 -90.17 561.17 -89.72 574.39 -88.77 587.6 -87.35 600.82 -85.55 614.03 -83.45 627.25 -81.18 640.46 -78.84 653.68 -76.56 666.9 -74.46 680.11 -72.65 693.33 -71.23 706.54 -70.27 719.76 -69.83 732.97 -69.91 746.19 -70.53 759.41 -71.64 772.62 -73.2 785.84 -75.11 799.05 -77.28 812.27 -79.59 825.48 -81.92 838.7 -84.15 851.92 -86.17 865.13 -87.85 878.35 -89.13 891.56 -89.92 904.78 -90.19 917.99 -89.93 931.21 -89.14 944.43 -87.87 957.64 -86.19 970.86 -84.18 984.07 -81.95 997.29 -79.62 1010.5 -77.31 1023.72 -75.14 1036.94 -73.22 1050.15 -71.66 1063.37 -70.54 1076.58 -69.92 1089.8 -69.82 1103.01 -70.26 1116.23 -71.22 1129.45 -72.63 1142.66 -74.43 1155.88 -76.53 1169.09 -78.8 1182.31 -81.14 1195.52 -83.42 1208.74 -85.52 1221.96 -87.33 1235.17 -88.75 1248.39 -89.71 1261.6 -90.16 1274.82 -90.08 1288.03 -89.46 1301.25 -88.35 1314.47 -86.8 1327.68 -84.89 1340.9 -82.72 1354.11 -80.41 1367.33 -78.08 1380.55 -75.85 1393.76 -73.83 1406.98 -72.14 1420.19 -70.87 1433.41 -70.07 1446.62 -69.8 1459.84 -70.06 1473.06 -70.84 1486.27 -72.11 1499.49 -73.79 1512.7 -75.8 1525.92 -78.03 1539.13 -80.36 1552.35 -82.67 1553.22 -67.66 1554.88 -52.65 1557.19 -37.64 1560.01 -22.63 1563.13 -7.62 1566.32 7.38 1569.36 22.39 1572.03 37.4 1574.15 52.41 1575.55 67.42 1576.14 82.43 1575.89 97.44 1574.79 112.45 1572.94 127.46 1570.47 142.47 1567.55 157.48 1564.39 172.49 1561.22 187.5 1558.26 202.51 1555.72 217.52 1553.79 232.53 1552.6 247.54 1552.23 262.55 1552.72 277.56 1554.03 292.57 1556.06 307.58 1558.67 322.58 1561.68 337.59 1564.87 352.6 1568 367.61 1570.87 382.62 1573.26 397.63 1575 412.64 1575.98 427.65 1576.11 442.66 1575.39 457.67 1573.88 472.68 1571.67 487.69 1568.93 502.7 1565.85 517.71 1562.66 532.72 1559.57 547.73 1556.82 562.74 1554.59 577.75 1553.04 592.76 1552.29 607.77 1552.39 622.78 1553.33 637.79 1555.05 652.8 1557.42 667.81 1560.27 682.82 1563.4 697.83 1566.59 712.84 1569.61 727.85 1572.24 742.86 1574.3 757.87 1575.63 772.88 1576.16 787.89 1575.82 802.9 1574.66 817.91 1572.76 832.92 1570.24 847.93 1567.29 862.94 1564.12 877.95 1550.79 879.72 1537.46 881.5 1524.13 883.2 1510.8 884.74 1497.47 886.03 1484.14 886.99 1470.81 887.59 1457.48 887.79 1444.14 887.59 1430.81 886.98 1417.48 886 1404.15 884.71 1390.82 883.17 1377.49 881.46 1364.16 879.68 1350.83 877.91 1337.5 876.25 1324.17 874.79 1310.84 873.6 1297.51 872.75 1284.18 872.28 1270.85 872.22 1257.52 872.56 1244.19 873.3 1230.86 874.39 1217.53 875.77 1204.2 877.37 1190.87 879.12 1177.53 880.91 1164.2 882.65 1150.87 884.25 1137.54 885.63 1124.21 886.71 1110.88 887.44 1097.55 887.77 1084.22 887.7 1070.89 887.22 1057.56 886.37 1044.23 885.17 1030.9 883.71 1017.57 882.05 1004.24 880.28 990.91 878.5 977.58 876.79 964.25 875.26 950.92 873.97 937.59 873 924.26 872.4 910.93 872.2 897.6 872.4 884.26 873.01 870.93 873.98 857.6 875.28 844.27 876.81 830.94 878.52 817.61 880.3 804.28 882.07 790.95 883.73 777.62 885.19 764.29 886.38 750.96 887.23 737.63 887.71 724.3 887.77 710.97 887.43 697.64 886.69 684.31 885.61 670.98 884.23 657.65 882.62 644.32 880.88 630.99 879.09 617.66 877.35 604.33 875.75 591 874.37 577.66 873.29 564.33 872.56 551 872.22 537.67 872.29 524.34 872.76 511.01 873.62 497.68 874.81 484.35 876.27 471.02 877.93 457.69 879.7 444.36 881.49 431.03 883.19 417.7 884.73 404.37 886.02 391.04 886.99 377.71 887.59 364.38 887.79 351.05 887.59 337.72 886.98 324.39 886.01 311.06 884.72 297.73 883.18 284.4 881.48 271.07 879.69 257.73 877.93 244.4 876.27 231.07 874.8 217.74 873.61 204.41 872.76 191.08 872.29 177.75 872.22 164.42 872.56 151.09 873.29 137.76 874.38 124.43 875.76 111.1 877.36 97.77 879.1 84.44 880.89 71.11 882.63 57.78 884.23 44.45 885.61 31.12 886.7 17.79 887.43 4.46 887.77 -8.86 887.7 -22.19 887.23 -35.52 886.38 -48.85 885.19 -62.18 883.72 -75.51 882.06 -88.84 880.3 -102.18 878.51 -115.51 876.81 -128.84 875.27 -142.17 873.98 -142.95 858.95 -143.68 843.92 -144.31 828.89 -144.78 813.86 -145.07 798.83 -145.15 783.81 -145.02 768.78 -144.69 753.75 -144.18 738.72 -143.53 723.69 -142.78 708.66 -141.99 693.63 -141.21 678.6 -140.51 663.57 -139.92 648.55 -139.49 633.52 -139.26 618.49 -139.24 603.46 -139.42 588.43 -139.8 573.4 -140.36 558.37 -141.04 543.34 -141.8 528.31 -142.6 513.29 -143.36 498.26 -144.04 483.23 -144.58 468.2 -144.96 453.17 -145.14 438.14 -145.1 423.11 -144.86 408.08 -144.43 393.05 -143.84 378.03 -143.13 363 -142.35 347.97 -141.56 332.94 -140.82 317.91 -140.17 302.88 -139.67 287.85 -139.34 272.82 -139.22 257.79 -139.31 242.76 -139.61 227.74 -140.08 212.71 -140.71 197.68 -141.45 182.65 -142.23 167.62 -143.02 152.59 -143.74 137.56 -144.35 122.53 -144.81 107.5 -145.08 92.48 -145.15 77.45 -145 62.42 -144.65 47.39 -144.13 32.36 -143.47 17.33 -142.71 2.3 -141.92 -12.72 -141.15 -27.75 -140.45 -42.77 -139.88 -57.8 -139.47 -72.83 -139.25 -87.86" fill="url(#uuunion-grad)"></path><path d="M-139.26 -87.86Q-139.48 -72.83 -139.89 -57.8 -140.46 -42.78 -141.16 -27.75 -141.93 -12.72 -142.72 2.3 -143.48 17.33 -144.14 32.36 -144.66 47.39 -145.01 62.42 -145.16 77.45 -145.09 92.47 -144.82 107.5 -144.36 122.53 -143.75 137.56 -143.03 152.59 -142.24 167.62 -141.46 182.65 -140.72 197.68 -140.09 212.71 -139.62 227.73 -139.32 242.76 -139.23 257.79 -139.35 272.82 -139.68 287.85 -140.18 302.88 -140.83 317.91 -141.57 332.94 -142.36 347.97 -143.14 363 -143.85 378.02 -144.44 393.05 -135.5 394.01 -126.55 395.1 -117.6 396.32 -108.66 397.61 -99.71 398.96 -90.76 400.34 -81.82 401.71 -72.87 403.04 -63.92 404.3 -54.98 405.45 -46.03 406.48 -37.08 407.36 -28.14 408.06 -19.19 408.58 -2.28 408.97 0.69 408.99 11.92 405.65 23.15 401.99 34.36 398.03 45.58 393.79 56.79 389.32 67.99 384.67 79.18 379.9 90.36 375.05 101.54 370.2 112.7 365.41 123.86 360.74 135.01 356.24 146.14 351.97 157.27 347.96 168.39 344.26 179.49 340.88 190.58 337.83 201.67 335.11 212.74 332.71 223.8 330.6 234.85 328.74 245.89 327.09 256.92 325.59 267.95 324.19 278.96 322.82 289.97 321.42 300.96 319.92 311.95 318.27 322.94 316.42 333.92 314.3 344.89 311.89 355.86 309.17 366.83 306.11 377.8 302.71 388.76 298.99 399.73 294.96 410.69 290.65 421.66 286.11 432.63 281.4 443.6 276.56 454.58 271.66 465.56 266.77 476.55 261.94 487.54 257.25 498.55 252.74 509.56 248.48 520.59 244.49 531.62 240.82 542.67 237.49 553.73 234.49 564.8 231.84 575.88 229.5 586.98 227.46 598.1 225.67 609.22 224.09 620.37 222.66 631.53 221.32 642.71 219.99 653.9 218.63 665.11 217.16 676.33 215.52 687.58 213.66 698.83 211.53 710.11 209.1 721.4 206.33 732.7 203.22 744.02 199.76 755.36 195.97 766.71 191.87 778.07 187.5 789.44 182.89 800.83 178.1 812.22 173.21 823.63 168.25 835.04 163.32 846.46 158.46 857.89 153.75 869.32 149.24 880.76 144.99 892.2 141.03 903.64 137.39 915.08 134.1 926.52 131.17 937.95 128.58 949.38 126.31 960.81 124.34 972.23 122.62 983.64 121.11 995.04 119.74 1006.42 118.45 1017.8 117.18 1029.16 115.85 1040.5 114.4 1051.83 112.77 1063.14 110.91 1074.43 108.76 1085.7 106.3 1096.95 103.49 1108.17 100.32 1119.37 96.8 1130.54 92.95 1141.69 88.77 1152.81 84.32 1163.91 79.64 1174.98 74.79 1186.01 69.84 1197.02 64.83 1208 59.86 1218.96 54.97 1229.88 50.25 1240.77 45.74 1251.63 41.5 1262.47 37.56 1273.27 33.97 1284.05 30.73 1294.8 27.85 1305.52 25.33 1316.22 23.13 1326.89 21.23 1337.54 19.59 1348.16 18.15 1358.76 16.84 1369.34 15.61 1379.91 14.38 1390.45 13.08 1400.98 11.66 1411.49 10.03 1422 8.16 1418.7 -9.29 1415.72 -26.76 1413.35 -44.22 1411.82 -61.69 1411.27 -79.15 1411.77 -96.62 1413.25 -114.08 1415.58 -131.54 1403.33 -132.99 1391.08 -134.76 1378.83 -136.75 1366.59 -138.9 1354.34 -141.09 1342.09 -143.24 1329.84 -145.23 1317.59 -147 1305.35 -148.45 1293.1 -149.51 1280.85 -150.16 1268.6 -150.34 1256.35 -150.06 1244.11 -149.33 1231.86 -148.18 1219.61 -146.67 1207.36 -144.85 1195.11 -142.81 1182.87 -140.65 1170.62 -138.46 1158.37 -136.34 1146.12 -134.38 1133.87 -132.67 1121.63 -131.3 1109.38 -130.31 1097.13 -129.76 1084.88 -129.67 1072.63 -130.04 1060.39 -130.86 1048.14 -132.08 1035.89 -133.67 1023.64 -135.54 1011.39 -137.6 999.15 -139.78 986.9 -141.96 974.65 -144.06 962.4 -145.98 950.15 -147.62 937.91 -148.92 925.66 -149.83 913.41 -150.29 901.16 -150.29 888.91 -149.82 876.67 -148.92 864.42 -147.61 852.17 -145.97 839.92 -144.05 827.67 -141.95 815.43 -139.77 803.18 -137.59 790.93 -135.53 778.68 -133.66 766.43 -132.08 754.19 -130.85 741.94 -130.03 729.69 -129.67 717.44 -129.76 705.19 -130.31 692.95 -131.3 680.7 -132.68 668.45 -134.39 656.2 -136.35 643.95 -138.47 631.71 -140.66 619.46 -142.82 607.21 -144.86 594.96 -146.67 582.71 -148.19 570.46 -149.34 558.22 -150.07 545.97 -150.34 533.72 -150.15 521.47 -149.51 509.22 -148.44 496.98 -146.99 484.73 -145.22 472.48 -143.22 460.23 -141.08 447.98 -138.89 435.74 -136.74 423.49 -134.75 411.24 -132.99 398.99 -131.54 386.74 -130.47 374.5 -129.83 362.25 -129.65 350 -129.93 337.75 -130.66 325.5 -131.81 313.26 -133.33 301.01 -135.15 288.76 -137.19 276.51 -139.35 264.26 -141.54 252.02 -143.66 239.77 -145.62 227.52 -147.32 215.27 -148.7 203.02 -149.68 190.78 -150.23 178.53 -150.32 166.28 -149.95 154.03 -149.13 141.78 -147.9 129.54 -146.31 117.29 -144.44 105.04 -142.37 92.79 -140.2 80.54 -138.01 68.3 -135.92 56.05 -134.01 43.8 -132.36 31.55 -131.06 19.3 -130.16 7.06 -129.7 -5.18 -129.71 -17.43 -130.17 -29.68 -131.08 -41.93 -132.38 -54.17 -134.03 -66.42 -135.95 -78.67 -138.05 -90.92 -140.23 -103.17 -142.41 -115.41 -144.47 -127.66 -146.34 -144.28 -140.89 -145.31 -118.54 -142.18 -103.21 -139.26 -87.86" fill="url(#uuunion-grad2)" filter="url(#uuunion-blur)"></path><path d="M1416.22 327.51Q1425.07 328.23 1433.91 328.76 1442.76 329.08 1451.6 329.19 1460.45 329.09 1469.29 328.77 1478.14 328.25 1486.98 327.53 1495.83 326.64 1504.68 325.59 1513.52 324.41 1522.37 323.13 1531.21 321.77 1540.06 320.37 1548.9 318.96 1557.75 317.58 1561.16 335.09 1564.87 352.6 1568.51 370.12 1571.73 387.63 1574.22 405.14 1575.74 422.65 1576.15 440.16 1575.39 457.67 1573.55 475.18 1570.81 492.7 1567.42 510.21 1563.72 527.72 1560.07 545.23 1556.82 562.74 1554.28 580.25 1552.7 597.77 1552.24 615.28 1552.93 632.79 1554.71 650.3 1557.42 667.81 1560.78 685.32 1564.47 702.83 1568.13 720.35 1571.42 737.86 1574 755.37 1575.63 772.88 1576.16 790.39 1575.53 807.9 1573.8 825.41 1571.13 842.93 1567.8 860.44 1564.12 877.95 1551.89 879.57 1539.66 881.21 1527.44 882.79 1515.21 884.26 1502.98 885.53 1490.75 886.56 1478.53 887.29 1466.3 887.71 1454.07 887.78 1441.84 887.51 1429.62 886.9 1417.39 885.99 1405.16 884.82 1392.94 883.43 1380.71 881.88 1368.48 880.26 1356.25 878.62 1344.03 877.04 1331.8 875.6 1319.57 874.35 1307.34 873.35 1295.12 872.64 1282.89 872.26 1270.66 872.22 1258.43 872.53 1246.21 873.16 1233.98 874.1 1221.75 875.3 1209.52 876.71 1197.3 878.26 1185.07 879.89 1172.84 881.53 1160.61 883.1 1148.39 884.52 1136.16 885.75 1123.93 886.73 1111.7 887.4 1099.48 887.75 1087.25 887.75 1075.02 887.41 1062.79 886.75 1050.57 885.78 1038.34 884.56 1026.11 883.13 1013.88 881.57 1001.66 879.93 989.43 878.3 977.2 876.75 964.97 875.33 952.75 874.13 940.52 873.18 928.29 872.54 916.06 872.22 903.84 872.25 891.61 872.63 879.38 873.33 867.15 874.32 854.93 875.57 842.7 877.01 830.47 878.58 818.24 880.22 806.02 881.85 793.79 883.39 781.56 884.79 769.34 885.97 757.11 886.89 744.88 887.5 732.65 887.78 720.43 887.71 708.2 887.31 695.97 886.58 683.74 885.56 671.52 884.29 659.29 882.83 647.06 881.25 634.83 879.61 622.61 877.99 610.38 876.45 598.15 875.08 585.92 873.92 573.7 873.03 561.47 872.45 549.24 872.2 537.01 872.3 524.79 872.74 512.56 873.5 500.33 874.55 488.1 875.84 475.88 877.31 463.65 878.9 451.42 880.54 439.19 882.16 426.97 883.68 414.74 885.04 402.51 886.17 390.28 887.03 378.06 887.58 365.83 887.79 353.6 887.66 341.37 887.19 329.15 886.4 316.92 885.32 304.69 884.01 292.46 882.52 280.24 880.92 268.01 879.28 255.78 877.67 243.55 876.17 231.33 874.83 219.1 873.72 206.87 872.89 194.65 872.37 182.42 872.2 170.19 872.36 157.96 872.87 145.74 873.69 133.51 874.79 121.28 876.12 109.05 877.62 96.83 879.23 84.6 880.87 72.37 882.47 60.14 883.96 47.92 885.28 35.69 886.36 23.46 887.17 4.97 882.73 -1.59 867.84 -1.87 857.87 -2.12 847.89 -2.34 837.92 -2.51 827.94 -2.42 812.98 -1.7 808 10.88 801.58 23.5 794.79 36.13 787.67 48.77 780.24 61.42 772.57 74.07 764.71 86.72 756.75 99.37 748.75 112.01 740.81 124.64 733 137.25 725.38 149.84 718.04 162.42 711.01 174.97 704.34 187.49 698.04 199.99 692.13 212.47 686.58 224.92 681.37 237.36 676.44 249.77 671.74 262.16 667.2 274.54 662.74 286.9 658.27 299.26 653.71 311.61 648.99 323.96 644.03 336.31 638.78 348.67 633.17 361.05 627.19 373.44 620.82 385.85 614.07 398.29 606.95 410.75 599.5 423.25 591.78 435.78 583.86 448.34 575.81 460.94 567.72 473.58 559.66 486.26 551.74 498.97 544.01 511.72 536.56 524.5 529.43 537.31 522.68 550.15 516.32 563.01 510.37 575.89 504.8 588.78 499.59 601.68 494.69 614.57 490.05 627.46 485.58 640.34 481.21 653.2 476.84 666.04 472.4 678.84 467.79 691.61 462.95 704.33 457.79 717 452.28 729.61 446.38 742.17 440.07 754.67 433.34 767.1 426.23 779.46 418.77 791.76 411.01 803.99 403.03 813.7 400.33 823.4 397.58 833.09 394.82 842.78 392.11 852.47 389.47 862.15 386.96 871.83 384.59 881.5 382.42 891.16 380.45 900.83 378.72 910.48 377.23 920.13 376 929.78 375.02 939.42 374.28 949.06 373.77 958.69 373.47 968.32 373.36 977.94 373.4 987.56 373.55 997.17 373.78 1006.78 374.05 1016.38 374.3 1025.98 374.51 1035.58 374.63 1045.16 374.62 1054.75 374.44 1064.33 374.07 1073.9 373.49 1083.47 372.66 1093.04 371.58 1102.6 370.26 1112.15 368.67 1121.71 366.85 1131.25 364.8 1140.8 362.54 1150.34 360.1 1159.87 357.52 1169.41 354.84 1178.93 352.09 1188.46 349.31 1197.98 346.55 1207.49 343.85 1217.01 341.25 1226.52 338.8 1236.02 336.51 1245.53 334.43 1255.03 332.57 1264.53 330.95 1274.02 329.59 1283.52 328.49 1293.01 327.63 1302.49 327.02 1311.98 326.63 1321.46 326.45 1330.94 326.43 1340.42 326.55 1349.9 326.76 1359.38 327.04 1368.86 327.32 1378.33 327.58 1387.8 327.76 1397.28 327.84 1406.75 327.76 1416.22 327.51" fill="url(#uuunion-grad3)" filter="url(#uuunion-blur2)"></path></svg>