<svg xmlns="http://www.w3.org/2000/svg" version="1.1" xmlns:xlink="http://www.w3.org/1999/xlink" xmlns:svgjs="http://svgjs.dev/svgjs" viewBox="0 0 800 800"><defs><linearGradient x1="50%" y1="0%" x2="50%" y2="100%" id="nnneon-grad"><stop stop-color="hsl(212, 72%, 59%)" stop-opacity="1" offset="0%"></stop><stop stop-color="hsl(238, 87%, 43%)" stop-opacity="1" offset="100%"></stop></linearGradient><filter id="nnneon-filter" x="-100%" y="-100%" width="400%" height="400%" filterUnits="objectBoundingBox" primitiveUnits="userSpaceOnUse" color-interpolation-filters="sRGB">
	<feGaussianBlur stdDeviation="16 7" x="0%" y="0%" width="100%" height="100%" in="SourceGraphic" edgeMode="none" result="blur"></feGaussianBlur></filter><filter id="nnneon-filter2" x="-100%" y="-100%" width="400%" height="400%" filterUnits="objectBoundingBox" primitiveUnits="userSpaceOnUse" color-interpolation-filters="sRGB">
	<feGaussianBlur stdDeviation="13 17" x="0%" y="0%" width="100%" height="100%" in="SourceGraphic" edgeMode="none" result="blur"></feGaussianBlur></filter></defs><g stroke-width="28" stroke="url(#nnneon-grad)" fill="none"><path d="M377.5603813438297 76.35969093085714C391.4460362525451 68.34424824599421 408.5540247826111 68.34424824599421 422.43967969132655 76.36193489577454L669.0603999704916 218.74824079796053C682.9460548792072 226.76368348282347 691.50004914424 241.58058383224966 691.50004914424 257.613713166893V542.386324971265C691.50004914424 558.4194543059084 682.9460548792072 573.2363546553345 669.0603999704916 581.2540413051147L422.43967969132655 723.6403472073007C408.5540247826111 731.6557898921636 391.4460362525451 731.6557898921636 377.5603813438297 723.6381032423834L130.93966106466468 581.2517973401974C117.05400615594914 573.2363546553345 108.5000118909162 558.4194543059084 108.5000118909162 542.386324971265V257.613713166893C108.5000118909162 241.58058383224966 117.05400615594914 226.76368348282347 130.93966106466468 218.74599683304325L377.5603813438297 76.35969093085714Z " filter="url(#nnneon-filter)"></path><path d="M401.5603813438297 76.35969093085714C415.4460362525451 68.34424824599421 432.5540247826111 68.34424824599421 446.43967969132655 76.36193489577454L693.0603999704916 218.74824079796053C706.9460548792072 226.76368348282347 715.50004914424 241.58058383224966 715.50004914424 257.613713166893V542.386324971265C715.50004914424 558.4194543059084 706.9460548792072 573.2363546553345 693.0603999704916 581.2540413051147L446.43967969132655 723.6403472073007C432.5540247826111 731.6557898921636 415.4460362525451 731.6557898921636 401.5603813438297 723.6381032423834L154.93966106466468 581.2517973401974C141.05400615594914 573.2363546553345 132.5000118909162 558.4194543059084 132.5000118909162 542.386324971265V257.613713166893C132.5000118909162 241.58058383224966 141.05400615594914 226.76368348282347 154.93966106466468 218.74599683304325L401.5603813438297 76.35969093085714Z " filter="url(#nnneon-filter2)" opacity="0.15"></path><path d="M353.5603813438297 76.35969093085714C367.4460362525451 68.34424824599421 384.5540247826111 68.34424824599421 398.43967969132655 76.36193489577454L645.0603999704916 218.74824079796053C658.9460548792072 226.76368348282347 667.50004914424 241.58058383224966 667.50004914424 257.613713166893V542.386324971265C667.50004914424 558.4194543059084 658.9460548792072 573.2363546553345 645.0603999704916 581.2540413051147L398.43967969132655 723.6403472073007C384.5540247826111 731.6557898921636 367.4460362525451 731.6557898921636 353.5603813438297 723.6381032423834L106.93966106466468 581.2517973401974C93.05400615594914 573.2363546553345 84.5000118909162 558.4194543059084 84.5000118909162 542.386324971265V257.613713166893C84.5000118909162 241.58058383224966 93.05400615594914 226.76368348282347 106.93966106466468 218.74599683304325L353.5603813438297 76.35969093085714Z " filter="url(#nnneon-filter2)" opacity="0.15"></path><path d="M377.5603813438297 76.35969093085714C391.4460362525451 68.34424824599421 408.5540247826111 68.34424824599421 422.43967969132655 76.36193489577454L669.0603999704916 218.74824079796053C682.9460548792072 226.76368348282347 691.50004914424 241.58058383224966 691.50004914424 257.613713166893V542.386324971265C691.50004914424 558.4194543059084 682.9460548792072 573.2363546553345 669.0603999704916 581.2540413051147L422.43967969132655 723.6403472073007C408.5540247826111 731.6557898921636 391.4460362525451 731.6557898921636 377.5603813438297 723.6381032423834L130.93966106466468 581.2517973401974C117.05400615594914 573.2363546553345 108.5000118909162 558.4194543059084 108.5000118909162 542.386324971265V257.613713166893C108.5000118909162 241.58058383224966 117.05400615594914 226.76368348282347 130.93966106466468 218.74599683304325L377.5603813438297 76.35969093085714Z "></path></g></svg>