<?xml version="1.0" encoding="UTF-8" standalone="no"?>
<!-- Created with Inkscape (http://www.inkscape.org/) -->

<svg
   version="1.1"
   id="svg2"
   width="516.78882"
   height="458.49973"
   viewBox="0 0 516.78882 458.49973"
   sodipodi:docname="logo.svg"
   xmlns:inkscape="http://www.inkscape.org/namespaces/inkscape"
   xmlns:sodipodi="http://sodipodi.sourceforge.net/DTD/sodipodi-0.dtd"
   xmlns="http://www.w3.org/2000/svg"
   xmlns:svg="http://www.w3.org/2000/svg">
  <defs
     id="defs6" />
  <sodipodi:namedview
     id="namedview4"
     pagecolor="#ffffff"
     bordercolor="#000000"
     borderopacity="0.25"
     inkscape:showpageshadow="2"
     inkscape:pageopacity="0.0"
     inkscape:pagecheckerboard="0"
     inkscape:deskcolor="#d1d1d1"
     showgrid="false" />
  <g
     inkscape:groupmode="layer"
     inkscape:label="Image"
     id="g8"
     transform="translate(2.4999969,2.4999997)">
    <path
       style="fill:#f9f9f9;fill-opacity:1;stroke:#f9f9f9;stroke-width:5;stroke-dasharray:none"
       d="m 1.9757367,450.86486 c -2.62300003,-3.33462 -2.63420003,-6.3852 -0.034,-9.17658 1.9592,-2.10294 2.7815,-2.18856 21.0214003,-2.18856 h 18.9825 l 1.1968,-2.75 c 2.3671,-5.43924 6.092,-10.29264 9.5942,-12.50096 1.9618,-1.23697 10.3392,-4.53625 18.6165,-7.33172 l 15.04963,-5.08268 0.56744,-41.41732 c 0.40415,-29.49887 0.9357,-42.56838 1.84715,-45.41732 4.3382,-13.56002 13.745683,-23.89614 27.889653,-30.6427 4.78267,-2.2813 19.15826,-9.22428 31.94576,-15.42885 l 23.25,-11.28104 v -36.57371 -36.57371 h -65.86351 c -40.371623,0 -67.934723,-0.39281 -71.215023,-1.0149 -15.9823,-3.03098 -28.2201003,-16.15898 -29.6378003,-31.79374 -0.4997,-5.51015 -0.3269,-6.23902 2.0398,-8.60569 l 2.5856,-2.58567 H 37.722437 c 26.7222,0 28.0228,0.0882 30.5455,2.07258 3.0036,2.36267 3.5723,7.26167 1.2171,10.48629 -1.3151,1.8006 -3.1303,1.97733 -25.0743,2.44113 l -23.6565,0.5 3.0609,4.22284 c 1.6834,2.32256 4.9794,5.24756 7.3242,6.5 l 4.2634,2.27716 68.074153,0.27651 68.07412,0.27651 1.50865,-7.02651 1.50865,-7.02651 h -36.22199 c -33.04927,0 -36.4016,-0.15328 -38.27259,-1.75 -3.177843,-2.71199 -3.260633,-8.16032 -0.170963,-11.25 1.934303,-1.9343 3.338603,-2.00025 42.750003,-2.00752 l 40.75,-0.008 4.37582,-4.45561 4.37582,-4.45561 -4.38579,-4.87805 c -4.8943,-5.44364 -9.27816,-13.68333 -10.80596,-20.31035 -0.55605,-2.41194 -1.022,-11.22786 -1.03544,-19.590926 -0.0232,-14.44936 -0.14578,-15.38438 -2.46404,-18.80053 -7.87403,-11.603034 -4.3926,-30.626896 7.84083,-42.845322 8.21375,-8.20367 19.11111,-13.079438 33.74647,-15.099061 3.91442,-0.540176 4.83826,-1.101418 5.85552,-3.557296 C 222.57928,12.451768 231.01929,4.7962087 236.68554,2.1785037 240.53743,0.39900074 243.23719,-6.2825913e-4 251.40277,7.4087417e-7 260.29447,6.8574087e-4 261.95692,0.29442774 266.40277,2.6503907 287.95419,14.071004 291.81872,42.072272 274.19632,59.120227 l -5.29355,5.121475 v 24.539912 c 0,21.275986 -0.25199,25.349536 -1.89456,30.627136 -2.04669,6.57605 -6.5658,14.29591 -10.57156,18.05913 l -2.50445,2.35281 5.73528,5.29443 5.73529,5.29442 90.20295,0.0451 c 65.20334,0.0326 90.89506,0.36043 92.70022,1.18292 3.38325,1.5415 4.53518,5.36265 3.53123,11.7136 -2.45293,15.51713 -13.86979,27.18665 -29.40827,30.0591 -3.8909,0.71926 -29.61648,1.08945 -75.70979,1.08945 h -69.81634 l 0.0707,37.75001 0.0707,37.75 38.36229,34.91767 c 48.18022,43.85404 46.50344,42.21396 46.46442,45.44741 -0.0558,4.61831 -5.12839,8.85363 -9.09583,7.59441 -1.12865,-0.35822 -20.95331,-17.93315 -44.05481,-39.0554 l -42.00263,-38.40409 h -43.38265 -43.38265 l -32.22345,15.49106 c -35.04965,16.84972 -37.80219,18.69072 -42.62464,28.50894 l -2.70145,5.5 -0.30975,34.25 -0.30975,34.25 h 6.0407 c 7.18006,0 6.11074,2.80111 9.5437,-25 1.39227,-11.275 2.98629,-22.12558 3.54226,-24.1124 2.38961,-8.53947 11.59244,-16.80987 20.84123,-18.72958 2.55839,-0.53102 22.46672,-3.31431 44.24075,-6.18508 l 39.58914,-5.21959 79.41086,42.75479 c 43.67597,23.51513 79.71391,42.9259 80.08432,43.13503 0.3704,0.20914 2.38315,-1.70621 4.47278,-4.25633 l 3.79933,-4.63658 -8.2499,-7.62513 c -7.11232,-6.5737 -8.24616,-8.07327 -8.22279,-10.87513 0.0354,-4.24401 3.07083,-7.25749 7.27712,-7.22453 2.68402,0.021 4.99146,1.61684 13.25,9.16364 5.5,5.02599 16.33505,14.1873 24.07788,20.35847 l 14.07788,11.2203 12.23453,2.62757 c 6.72899,1.44517 14.02501,3.54102 16.21338,4.65744 5.77842,2.94793 11.5319,9.3438 13.74171,15.276 l 1.92629,5.17111 14.57404,0.5 c 13.0734,0.44852 14.72933,0.70593 16.08236,2.5 2.10038,2.78505 1.93164,5.77299 -0.50065,8.86514 l -2.07258,2.63486 H 255.90275 4.0479367 Z M 395.88797,438.74972 c -0.008,-0.4125 -0.61258,-2.74811 -1.34273,-5.19024 -1.02954,-3.44349 -2.54138,-5.38826 -6.73482,-8.66342 -4.69265,-3.66506 -53.64876,-30.47441 -140.90727,-77.16367 l -24.5,-13.10918 -39.79022,5.3496 c -27.24236,3.6626 -40.55936,5.85355 -42.22919,6.94767 -1.34144,0.87894 -3.14754,2.9683 -4.01358,4.64303 -1.85136,3.58015 -10.08844,63.49162 -10.74962,78.18621 l -0.4387,9.75 H 260.5425 c 74.44836,0 135.35382,-0.3375 135.34547,-0.75 z m -289.61072,-2.20213 c 3.61564,-1.37467 4.33766,-3.44357 4.81522,-13.79787 l 0.42663,-9.25 h -4.80797 c -4.78017,0 -4.80798,0.0192 -4.80798,3.32569 0,2.17829 -0.77627,4.02886 -2.250003,5.36383 -1.2375,1.12099 -10.21468,4.58048 -19.94929,7.68776 -9.73462,3.10728 -17.97362,6.09355 -18.30902,6.63616 -0.8029,1.29919 41.470543,1.33162 44.882413,0.0344 z m 355.46657,-0.93138 c -2.0529,-3.28723 -5.99691,-4.83688 -19.53426,-7.67527 l -13.19358,-2.7663 -11.68534,-9.33746 c -6.42694,-5.1356 -12.05443,-9.33746 -12.50553,-9.33746 -0.4511,0 -2.05195,1.61493 -3.55744,3.58874 l -2.73727,3.58874 4.68638,4.30283 c 3.32727,3.05497 4.68637,5.07371 4.68637,6.96092 0,3.90835 2.65635,8.37848 6.29855,10.59925 2.9271,1.78477 5.15172,1.95236 25.95992,1.95578 22.03946,0.004 22.72132,-0.0558 21.5822,-1.87977 z M 261.40315,253.49972 v -11.5 l -37.25,-0.26217 -37.25,-0.26217 v 12.02434 12.02434 l 37.25,-0.26217 37.25,-0.26217 z m 0,-52.5 v -26.00001 l -3.10264,-6.54737 c -3.75568,-7.92545 -8.1941,-13.16317 -14.07486,-16.60952 -4.20379,-2.46359 -4.61646,-2.51846 -9.11284,-1.21178 -5.48292,1.59338 -21.50013,1.64472 -25.33834,0.0812 -2.99989,-1.22201 -4.81139,-0.30446 -11.22721,5.68675 -4.82717,4.5077 -7.84293,9.20023 -9.97998,15.52884 -1.3787,4.08289 -1.66413,9.27344 -1.66413,30.2622 v 25.33403 l 37.25,-0.26217 37.25,-0.26217 z m 161,-22.61851 c 3.98911,-1.10433 13.5,-9.37433 13.5,-11.73864 0,-0.84775 -20.94377,-1.14286 -81.10841,-1.14286 h -81.10841 l 0.65674,2.61666 c 0.36121,1.43917 0.89894,4.02667 1.19495,5.75 0.29601,1.72334 0.71013,3.69584 0.92028,4.38334 0.51732,1.69245 139.85283,1.81799 145.94485,0.1315 z M 235.04167,134.76264 c 2.53346,-1.12067 6.49867,-3.74723 8.81157,-5.8368 4.08247,-3.68827 9.04991,-11.83515 9.04991,-14.84236 0,-0.8155 -2.84498,-3.51286 -6.32219,-5.99414 C 229.22964,95.707704 216.86399,90.779194 200.67512,89.792924 l -9.77197,-0.59533 0.006,10.901056 c 0.006,12.71823 0.88109,16.53528 5.27135,23.00634 6.67098,9.83274 16.33449,14.73553 27.73918,14.07349 3.58954,-0.20837 8.58493,-1.2934 11.12241,-2.41584 z M 252.502,57.835795 c -6.96724,-20.447712 -29.76797,-28.788851 -51.19555,-18.728751 -12.61233,5.9214 -20.52412,20.456995 -15.94971,29.302924 2.19886,4.252126 6.00677,5.684136 17.26878,6.494136 16.31002,1.17306 32.9055,6.92157 45.77763,15.85691 l 5,3.4708 0.27573,-16.06641 c 0.20637,-12.024952 -0.0897,-17.138813 -1.17688,-20.329609 z m 15.29734,-14.132597 c 4.2607,-8.351674 3.52525,-16.376021 -2.08671,-22.7677 -5.36296,-6.108075 -12.38834,-8.434092 -19.60478,-6.490906 -3.80347,1.024166 -10.21841,5.362352 -10.19429,6.894013 0.006,0.363608 2.64255,1.885564 5.85961,3.382124 7.22218,3.359719 15.38159,10.570227 19.82947,17.523384 1.84908,2.890579 3.56399,5.255598 3.81091,5.255598 0.24693,0 1.32053,-1.708431 2.38579,-3.796513 z"
       id="path293"
       inkscape:export-filename="../dashboard/logo.svg"
       inkscape:export-xdpi="96"
       inkscape:export-ydpi="96" />
  </g>
</svg>
